<mxfile host="app.diagrams.net" modified="2020-03-24T14:41:35.131Z" agent="Mozilla/5.0 (X11; Ubuntu; Linux x86_64; rv:74.0) Gecko/20100101 Firefox/74.0" etag="j1KtDBISFziqYFBnLHxe" version="12.9.1" type="github">
  <diagram id="8KjQeTY2GAw4DngS27Id" name="Page-1">
    <mxGraphModel dx="1404" dy="794" grid="1" gridSize="10" guides="1" tooltips="1" connect="1" arrows="1" fold="1" page="1" pageScale="1" pageWidth="850" pageHeight="1100" math="0" shadow="0">
      <root>
        <mxCell id="0" />
        <mxCell id="1" parent="0" />
        <mxCell id="NYJecoJ3V5E-55MTrYzz-18" value="" style="rounded=0;whiteSpace=wrap;html=1;fillColor=#e1d5e7;strokeColor=#9673a6;" vertex="1" parent="1">
          <mxGeometry x="560" y="380" width="202.5" height="150" as="geometry" />
        </mxCell>
        <mxCell id="NYJecoJ3V5E-55MTrYzz-6" value="" style="rounded=0;whiteSpace=wrap;html=1;fillColor=#d5e8d4;strokeColor=#82b366;" vertex="1" parent="1">
          <mxGeometry x="240" y="10" width="120" height="190" as="geometry" />
        </mxCell>
        <mxCell id="NYJecoJ3V5E-55MTrYzz-1" value="Docker" style="rounded=0;whiteSpace=wrap;html=1;fillColor=#dae8fc;strokeColor=#6c8ebf;" vertex="1" parent="1">
          <mxGeometry x="15" y="300" width="820" height="60" as="geometry" />
        </mxCell>
        <mxCell id="NYJecoJ3V5E-55MTrYzz-25" style="edgeStyle=orthogonalEdgeStyle;rounded=0;orthogonalLoop=1;jettySize=auto;html=1;exitX=0;exitY=1;exitDx=0;exitDy=0;entryX=0.5;entryY=0;entryDx=0;entryDy=0;" edge="1" parent="1" source="NYJecoJ3V5E-55MTrYzz-2" target="NYJecoJ3V5E-55MTrYzz-23">
          <mxGeometry relative="1" as="geometry">
            <Array as="points">
              <mxPoint x="49" y="240" />
              <mxPoint x="610" y="240" />
            </Array>
          </mxGeometry>
        </mxCell>
        <mxCell id="NYJecoJ3V5E-55MTrYzz-2" value="User" style="ellipse;whiteSpace=wrap;html=1;" vertex="1" parent="1">
          <mxGeometry x="40" y="40" width="60" height="60" as="geometry" />
        </mxCell>
        <mxCell id="NYJecoJ3V5E-55MTrYzz-12" style="edgeStyle=orthogonalEdgeStyle;rounded=0;orthogonalLoop=1;jettySize=auto;html=1;entryX=1;entryY=0.5;entryDx=0;entryDy=0;" edge="1" parent="1" source="NYJecoJ3V5E-55MTrYzz-3" target="NYJecoJ3V5E-55MTrYzz-2">
          <mxGeometry relative="1" as="geometry" />
        </mxCell>
        <mxCell id="NYJecoJ3V5E-55MTrYzz-3" value="Video" style="rounded=1;whiteSpace=wrap;html=1;" vertex="1" parent="1">
          <mxGeometry x="240" y="70" width="120" height="60" as="geometry" />
        </mxCell>
        <mxCell id="NYJecoJ3V5E-55MTrYzz-4" value="Chat" style="rounded=1;whiteSpace=wrap;html=1;" vertex="1" parent="1">
          <mxGeometry x="240" y="140" width="120" height="60" as="geometry" />
        </mxCell>
        <mxCell id="NYJecoJ3V5E-55MTrYzz-7" value="Twitch.tv" style="text;html=1;strokeColor=none;fillColor=none;align=center;verticalAlign=middle;whiteSpace=wrap;rounded=0;" vertex="1" parent="1">
          <mxGeometry x="280" y="30" width="40" height="20" as="geometry" />
        </mxCell>
        <mxCell id="NYJecoJ3V5E-55MTrYzz-10" style="edgeStyle=orthogonalEdgeStyle;rounded=0;orthogonalLoop=1;jettySize=auto;html=1;entryX=1;entryY=0.5;entryDx=0;entryDy=0;" edge="1" parent="1" source="NYJecoJ3V5E-55MTrYzz-8" target="NYJecoJ3V5E-55MTrYzz-9">
          <mxGeometry relative="1" as="geometry" />
        </mxCell>
        <mxCell id="NYJecoJ3V5E-55MTrYzz-8" value="HTML Frontend" style="ellipse;whiteSpace=wrap;html=1;aspect=fixed;" vertex="1" parent="1">
          <mxGeometry x="670" y="80" width="80" height="80" as="geometry" />
        </mxCell>
        <mxCell id="NYJecoJ3V5E-55MTrYzz-11" style="edgeStyle=orthogonalEdgeStyle;rounded=0;orthogonalLoop=1;jettySize=auto;html=1;" edge="1" parent="1" source="NYJecoJ3V5E-55MTrYzz-9" target="NYJecoJ3V5E-55MTrYzz-3">
          <mxGeometry relative="1" as="geometry" />
        </mxCell>
        <mxCell id="NYJecoJ3V5E-55MTrYzz-9" value="OBS" style="rounded=1;whiteSpace=wrap;html=1;" vertex="1" parent="1">
          <mxGeometry x="440" y="90" width="120" height="60" as="geometry" />
        </mxCell>
        <mxCell id="NYJecoJ3V5E-55MTrYzz-14" value="HTTP Server" style="ellipse;whiteSpace=wrap;html=1;aspect=fixed;" vertex="1" parent="1">
          <mxGeometry x="670" y="430" width="80" height="80" as="geometry" />
        </mxCell>
        <mxCell id="NYJecoJ3V5E-55MTrYzz-15" value="" style="endArrow=none;dashed=1;html=1;entryX=0.5;entryY=1;entryDx=0;entryDy=0;exitX=0.5;exitY=0;exitDx=0;exitDy=0;" edge="1" parent="1" source="NYJecoJ3V5E-55MTrYzz-14" target="NYJecoJ3V5E-55MTrYzz-8">
          <mxGeometry width="50" height="50" relative="1" as="geometry">
            <mxPoint x="420" y="360" as="sourcePoint" />
            <mxPoint x="470" y="310" as="targetPoint" />
          </mxGeometry>
        </mxCell>
        <mxCell id="NYJecoJ3V5E-55MTrYzz-16" value="Chat service" style="ellipse;whiteSpace=wrap;html=1;aspect=fixed;" vertex="1" parent="1">
          <mxGeometry x="260" y="380" width="80" height="80" as="geometry" />
        </mxCell>
        <mxCell id="NYJecoJ3V5E-55MTrYzz-17" value="" style="endArrow=classic;startArrow=classic;html=1;entryX=0.5;entryY=1;entryDx=0;entryDy=0;" edge="1" parent="1" source="NYJecoJ3V5E-55MTrYzz-16" target="NYJecoJ3V5E-55MTrYzz-4">
          <mxGeometry width="50" height="50" relative="1" as="geometry">
            <mxPoint x="420" y="540" as="sourcePoint" />
            <mxPoint x="470" y="490" as="targetPoint" />
          </mxGeometry>
        </mxCell>
        <mxCell id="NYJecoJ3V5E-55MTrYzz-23" value="Proxy" style="ellipse;whiteSpace=wrap;html=1;aspect=fixed;" vertex="1" parent="1">
          <mxGeometry x="570" y="430" width="80" height="80" as="geometry" />
        </mxCell>
        <mxCell id="NYJecoJ3V5E-55MTrYzz-24" value="" style="endArrow=classic;startArrow=classic;html=1;entryX=0;entryY=0.5;entryDx=0;entryDy=0;exitX=0.5;exitY=1;exitDx=0;exitDy=0;" edge="1" parent="1" source="NYJecoJ3V5E-55MTrYzz-2" target="NYJecoJ3V5E-55MTrYzz-4">
          <mxGeometry width="50" height="50" relative="1" as="geometry">
            <mxPoint x="420" y="400" as="sourcePoint" />
            <mxPoint x="470" y="350" as="targetPoint" />
          </mxGeometry>
        </mxCell>
        <mxCell id="NYJecoJ3V5E-55MTrYzz-28" value="Caddy Webserver" style="text;html=1;strokeColor=none;fillColor=none;align=center;verticalAlign=middle;whiteSpace=wrap;rounded=0;" vertex="1" parent="1">
          <mxGeometry x="635.63" y="390" width="51.25" height="20" as="geometry" />
        </mxCell>
        <mxCell id="NYJecoJ3V5E-55MTrYzz-30" value="UI Controller" style="ellipse;whiteSpace=wrap;html=1;aspect=fixed;" vertex="1" parent="1">
          <mxGeometry x="670" y="640" width="80" height="80" as="geometry" />
        </mxCell>
        <mxCell id="NYJecoJ3V5E-55MTrYzz-31" value="" style="endArrow=classic;startArrow=classic;html=1;entryX=0.5;entryY=0;entryDx=0;entryDy=0;exitX=0.5;exitY=1;exitDx=0;exitDy=0;" edge="1" parent="1" source="NYJecoJ3V5E-55MTrYzz-14" target="NYJecoJ3V5E-55MTrYzz-30">
          <mxGeometry width="50" height="50" relative="1" as="geometry">
            <mxPoint x="420" y="490" as="sourcePoint" />
            <mxPoint x="470" y="440" as="targetPoint" />
          </mxGeometry>
        </mxCell>
        <mxCell id="NYJecoJ3V5E-55MTrYzz-32" value="Websocket" style="text;html=1;align=center;verticalAlign=middle;resizable=0;points=[];labelBackgroundColor=#ffffff;" vertex="1" connectable="0" parent="NYJecoJ3V5E-55MTrYzz-31">
          <mxGeometry x="0.2" y="3" relative="1" as="geometry">
            <mxPoint x="-3" y="-8" as="offset" />
          </mxGeometry>
        </mxCell>
        <mxCell id="NYJecoJ3V5E-55MTrYzz-34" value="" style="rounded=0;whiteSpace=wrap;html=1;fillColor=#f8cecc;strokeColor=#b85450;" vertex="1" parent="1">
          <mxGeometry x="80" y="590" width="250" height="280" as="geometry" />
        </mxCell>
        <mxCell id="NYJecoJ3V5E-55MTrYzz-35" value="Auth Controller" style="ellipse;whiteSpace=wrap;html=1;aspect=fixed;" vertex="1" parent="1">
          <mxGeometry x="90" y="630" width="80" height="80" as="geometry" />
        </mxCell>
        <mxCell id="NYJecoJ3V5E-55MTrYzz-39" style="edgeStyle=orthogonalEdgeStyle;rounded=0;orthogonalLoop=1;jettySize=auto;html=1;exitX=1;exitY=1;exitDx=0;exitDy=0;entryX=0.5;entryY=0;entryDx=0;entryDy=0;" edge="1" parent="1" source="NYJecoJ3V5E-55MTrYzz-36" target="NYJecoJ3V5E-55MTrYzz-34">
          <mxGeometry relative="1" as="geometry" />
        </mxCell>
        <mxCell id="NYJecoJ3V5E-55MTrYzz-36" value="Session Manager" style="ellipse;whiteSpace=wrap;html=1;aspect=fixed;" vertex="1" parent="1">
          <mxGeometry x="110" y="380" width="80" height="80" as="geometry" />
        </mxCell>
        <mxCell id="NYJecoJ3V5E-55MTrYzz-37" value="" style="endArrow=classic;startArrow=classic;html=1;entryX=0;entryY=0.5;entryDx=0;entryDy=0;exitX=1;exitY=0.5;exitDx=0;exitDy=0;" edge="1" parent="1" source="NYJecoJ3V5E-55MTrYzz-36" target="NYJecoJ3V5E-55MTrYzz-16">
          <mxGeometry width="50" height="50" relative="1" as="geometry">
            <mxPoint x="410" y="600" as="sourcePoint" />
            <mxPoint x="460" y="550" as="targetPoint" />
          </mxGeometry>
        </mxCell>
        <mxCell id="NYJecoJ3V5E-55MTrYzz-38" value="" style="endArrow=classic;startArrow=classic;html=1;entryX=0.5;entryY=1;entryDx=0;entryDy=0;exitX=0.5;exitY=0;exitDx=0;exitDy=0;" edge="1" parent="1" source="NYJecoJ3V5E-55MTrYzz-35" target="NYJecoJ3V5E-55MTrYzz-36">
          <mxGeometry width="50" height="50" relative="1" as="geometry">
            <mxPoint x="410" y="600" as="sourcePoint" />
            <mxPoint x="460" y="550" as="targetPoint" />
          </mxGeometry>
        </mxCell>
        <mxCell id="NYJecoJ3V5E-55MTrYzz-40" value="User Service" style="text;html=1;strokeColor=none;fillColor=none;align=center;verticalAlign=middle;whiteSpace=wrap;rounded=0;" vertex="1" parent="1">
          <mxGeometry x="165" y="600" width="80" height="20" as="geometry" />
        </mxCell>
      </root>
    </mxGraphModel>
  </diagram>
</mxfile>
